<svg xmlns="http://www.w3.org/2000/svg" viewBox="0 0 20 20">
  <path fill="currentColor" d="M1.25 1.43C1.25.64 1.91 0 2.72 0h14.56c.81 0 1.47.64 1.47 1.43v17.14c0 .79-.66 1.43-1.47 1.43H2.72c-.81 0-1.47-.64-1.47-1.43V1.43zm5.43 15.31V7.71H3.92v9.03h2.76zm-1.38-10.27c.96 0 1.56-.64 1.56-1.43-.02-.81-.6-1.43-1.54-1.43-.94 0-1.56.62-1.56 1.43 0 .79.6 1.43 1.52 1.43h.02zm5.64 10.27v-5.04c0-.27.02-.54.1-.73.2-.54.65-1.1 1.41-1.1 1 0 1.4.76 1.4 1.88v4.99h2.76v-5.35c0-2.87-1.53-4.2-3.57-4.2-1.64 0-2.37.9-2.78 1.54v.03h-.02l.02-.03V7.71H7.38c.04.78 0 9.03 0 9.03h2.76z"/>
</svg>
